<?xml version="1.0" encoding="utf-8"?>
<!-- Generator: Adobe Illustrator 19.2.1, SVG Export Plug-In . SVG Version: 6.00 Build 0)  -->
<svg version="1.1" id="Layer_1" xmlns="http://www.w3.org/2000/svg" xmlns:xlink="http://www.w3.org/1999/xlink" x="0px" y="0px"
	 viewBox="0 0 250 49" style="enable-background:new 0 0 250 49;" xml:space="preserve">
<style type="text/css">
	.st0{fill:#189BD7;}
	.st1{enable-background:new    ;}
	.st2{fill:#FFFFFF;}
</style>
<title>support</title>
<path class="st0" d="M6.6,0h236.8c3.7,0,6.6,3,6.6,6.6v35.8c0,3.7-3,6.6-6.6,6.6c0,0,0,0,0,0H6.6C3,49,0,46,0,42.4c0,0,0,0,0,0V6.6
	C0,3,3,0,6.6,0z"/>
<g class="st1">
	<path class="st2" d="M25.4,18.8c-0.6-0.8-1.6-1.4-2.9-1.4c-1.4,0-3,0.8-3,2.6c0,1.8,1.5,2.2,3,2.7c2,0.7,4.1,1.3,4.1,4.1
		c0,2.8-2.3,4-4.6,4c-1.7,0-3.4-0.7-4.4-2.1l1.2-0.9c0.6,1,1.7,1.8,3.2,1.8c1.4,0,3.1-0.9,3.1-2.7c0-2-1.6-2.4-3.4-3
		c-1.9-0.6-3.8-1.4-3.8-3.9c0-2.7,2.4-3.9,4.5-3.9c1.9,0,3.3,0.8,3.9,1.7L25.4,18.8z"/>
	<path class="st2" d="M36.4,30.6c0-0.5-0.1-1.2-0.1-1.6h0c-0.5,1.1-1.9,1.8-3.2,1.8c-2.3,0-3.5-1.5-3.5-3.8v-5.7h1.3v5.1
		c0,1.9,0.6,3.2,2.5,3.2c1.4,0,2.8-1.1,2.8-3.6v-4.7h1.3v7.2c0,0.5,0,1.4,0.1,2H36.4z"/>
	<path class="st2" d="M42.5,35.3h-1.3v-14h1.3v1.6h0.1c0.8-1.2,2.2-1.8,3.5-1.8c2.9,0,4.8,2.1,4.8,4.9c0,2.7-1.9,4.9-4.8,4.9
		c-1.3,0-2.7-0.7-3.5-1.8h-0.1V35.3z M45.9,22.2c-2.1,0-3.6,1.6-3.6,3.7c0,2.1,1.5,3.7,3.6,3.7c2.2,0,3.5-1.7,3.5-3.7
		C49.4,23.9,48.1,22.2,45.9,22.2z"/>
	<path class="st2" d="M55,35.3h-1.3v-14H55v1.6h0.1c0.8-1.2,2.2-1.8,3.5-1.8c2.9,0,4.8,2.1,4.8,4.9c0,2.7-1.9,4.9-4.8,4.9
		c-1.3,0-2.7-0.7-3.5-1.8H55V35.3z M58.4,22.2c-2.1,0-3.6,1.6-3.6,3.7c0,2.1,1.5,3.7,3.6,3.7c2.2,0,3.5-1.7,3.5-3.7
		C61.9,23.9,60.6,22.2,58.4,22.2z"/>
	<path class="st2" d="M70.4,30.8c-2.9,0-4.9-2.1-4.9-4.9c0-2.8,2.1-4.9,4.9-4.9c2.9,0,4.9,2.1,4.9,4.9
		C75.4,28.7,73.3,30.8,70.4,30.8z M70.4,22.2c-2.1,0-3.5,1.7-3.5,3.7c0,2.1,1.4,3.7,3.5,3.7c2.2,0,3.5-1.6,3.5-3.7
		C74,23.9,72.6,22.2,70.4,22.2z"/>
</g>
<g class="st1">
	<path class="st2" d="M78.3,21.3h1.3c0,0.5,0.1,1.2,0.1,1.6h0c0.5-1.1,1.7-1.8,3-1.8c0.3,0,0.6,0,0.9,0.1l-0.2,1.3
		c-0.2-0.1-0.6-0.1-0.9-0.1c-1.4,0-2.7,1-2.7,3.5v4.7h-1.3v-7.2C78.4,22.9,78.4,22,78.3,21.3z"/>
</g>
<g class="st1">
	<path class="st2" d="M89.5,22.4h-2.6v5.4c0,1.4,0.6,1.7,1.4,1.7c0.4,0,0.8-0.1,1.2-0.3l0.1,1.2c-0.5,0.2-1,0.3-1.6,0.3
		c-1,0-2.4-0.4-2.4-2.5v-5.8h-1.9v-1.1h1.9v-2.6h1.3v2.6h2.6V22.4z"/>
	<path class="st2" d="M100.8,30.8c-2.9,0-4.9-2.1-4.9-4.9c0-2.8,2.1-4.9,4.9-4.9c2.9,0,4.9,2.1,4.9,4.9
		C105.7,28.7,103.7,30.8,100.8,30.8z M100.8,22.2c-2.1,0-3.5,1.7-3.5,3.7c0,2.1,1.4,3.7,3.5,3.7c2.2,0,3.5-1.6,3.5-3.7
		C104.3,23.9,102.9,22.2,100.8,22.2z"/>
	<path class="st2" d="M109.8,21.3c0,0.5,0.1,1.2,0.1,1.6h0c0.5-1.1,1.9-1.8,3.2-1.8c2.3,0,3.5,1.5,3.5,3.8v5.7h-1.3v-5.1
		c0-1.9-0.6-3.2-2.5-3.2c-1.4,0-2.8,1.1-2.8,3.6v4.7h-1.3v-7.2c0-0.5,0-1.4-0.1-2H109.8z"/>
</g>
<path class="st2" d="M166,18.3c0.1,0,0.2,0,0.3,0h4.9c1.1-0.1,2.2,0.1,3.2,0.4c0.8,0.2,1.5,0.7,2,1.4c0.5,0.8,0.7,1.8,0.6,2.8
	c-0.1,0.9-0.3,1.7-0.6,2.5c-0.3,0.8-0.8,1.5-1.4,2.1c-0.9,0.7-2,1.2-3.1,1.4c-1.1,0.1-2.2,0.1-3.3,0.1c-0.3,0-0.5,0.1-0.6,0.4
	c-0.1,0.2-0.2,0.4-0.2,0.6c-0.2,1.2-0.4,2.4-0.6,3.6c-0.1,0.4-0.4,0.7-0.8,0.7h-2.8c-0.3,0-0.5-0.2-0.5-0.5c0,0,0,0,0-0.1
	c0.8-4.9,1.5-9.8,2.3-14.6C165.4,18.7,165.7,18.4,166,18.3z M169.1,21.5c-0.1,0.1-0.2,0.3-0.2,0.4c-0.2,1.2-0.4,2.5-0.6,3.7h0.9
	c0.8,0.1,1.6-0.1,2.3-0.4c0.5-0.3,0.9-0.8,1-1.4c0.2-0.5,0.2-1.1,0-1.6c-0.2-0.4-0.5-0.6-0.9-0.8c-0.7-0.2-1.3-0.2-2-0.2
	C169.5,21.4,169.3,21.4,169.1,21.5L169.1,21.5z"/>
<path class="st2" d="M179.3,24.1c1-0.6,2.1-0.9,3.2-0.8c0.9,0,1.7,0.2,2.5,0.6c0.3,0.2,0.5,0.5,0.7,0.8c0.1-0.3,0.1-0.5,0.1-0.8
	c0.1-0.2,0.3-0.4,0.5-0.4h2.7c0.3,0,0.5,0.2,0.5,0.5c0,0,0,0.1,0,0.1c-0.5,3.1-1,6.2-1.5,9.4c-0.1,0.4-0.4,0.7-0.8,0.7h-2.5
	c-0.2,0-0.4-0.1-0.5-0.3c0-0.1,0-0.3,0-0.4c0-0.2,0.1-0.4,0.1-0.6c-0.6,0.6-1.3,1-2.1,1.3c-0.9,0.3-1.9,0.3-2.9,0.1
	c-0.7-0.1-1.4-0.5-2-1c-0.6-0.6-1.1-1.5-1.2-2.4c-0.2-1.1-0.1-2.1,0.2-3.2C176.9,26.2,177.9,24.9,179.3,24.1z M182.6,26.2
	c-0.6,0.1-1.2,0.3-1.6,0.7c-0.6,0.5-1,1.1-1.1,1.9c-0.1,0.6,0,1.3,0.3,1.8c0.3,0.4,0.7,0.7,1.2,0.8c0.8,0.2,1.7,0.1,2.4-0.3
	c1.1-0.7,1.7-1.9,1.5-3.2c-0.1-0.6-0.5-1.2-1.1-1.4C183.6,26.2,183.1,26.2,182.6,26.2z"/>
<path class="st2" d="M191,23.7c0.1-0.1,0.3-0.2,0.5-0.2h2.6c0.2,0,0.4,0.1,0.6,0.2c0.1,0.2,0.2,0.4,0.3,0.6l1.5,5.1
	c1.2-1.7,2.3-3.5,3.5-5.2c0.1-0.2,0.3-0.4,0.4-0.6c0.2-0.1,0.4-0.2,0.6-0.2c0.9,0,1.8,0,2.7,0c0.3,0,0.5,0.3,0.4,0.5
	c0,0.1,0,0.2-0.1,0.3l-9.2,13.2c-0.1,0.2-0.4,0.4-0.7,0.4h-2.7c-0.2,0-0.3,0-0.4-0.1c-0.2-0.2-0.2-0.5-0.1-0.7l2.8-3.9
	c0-0.1,0-0.1,0-0.2l-3-8.8C190.8,24,190.9,23.8,191,23.7z"/>
<path class="st2" d="M206.9,18.3c0.1,0,0.2,0,0.4,0h5.1c1-0.1,2.1,0.1,3.1,0.4c0.8,0.3,1.4,0.8,1.9,1.5c0.5,0.9,0.7,1.8,0.5,2.8
	c-0.1,1-0.4,2-0.9,2.9c-0.4,0.8-1,1.5-1.7,2c-0.8,0.5-1.7,0.9-2.7,1c-1.1,0.1-2.2,0.1-3.3,0.1c-0.3,0-0.5,0.2-0.6,0.4
	c-0.1,0.2-0.1,0.4-0.2,0.6l-0.6,3.8c0,0.3-0.3,0.5-0.5,0.5h-3c-0.3,0-0.5-0.2-0.5-0.5c0,0,0,0,0-0.1c0.8-4.9,1.5-9.8,2.3-14.6
	C206.3,18.6,206.6,18.4,206.9,18.3z M209.9,21.9c-0.2,1.3-0.4,2.5-0.6,3.8c0.9,0,1.8,0,2.7-0.2c0.5-0.1,0.9-0.4,1.1-0.7
	c0.3-0.5,0.5-1,0.5-1.5c0.1-0.4-0.1-0.9-0.3-1.3c-0.3-0.3-0.7-0.5-1.1-0.5c-0.6-0.1-1.1-0.1-1.7-0.1
	C210.1,21.4,209.9,21.6,209.9,21.9C209.9,21.8,209.9,21.8,209.9,21.9L209.9,21.9z"/>
<path class="st2" d="M233.6,18.3c0.1,0,0.3,0,0.4,0h2.4c0.3,0,0.5,0.2,0.5,0.5c0,0,0,0.1,0,0.1c-0.8,4.9-1.5,9.8-2.3,14.7
	c-0.1,0.4-0.4,0.7-0.8,0.7h-2.4c-0.3,0-0.5-0.2-0.5-0.5c0,0,0-0.1,0-0.1c0.8-5,1.6-9.9,2.3-14.9C233.2,18.6,233.4,18.4,233.6,18.3z"
	/>
<path class="st2" d="M152.5,19c0.8,0.4,1.5,1.2,1.8,2c0.3,1.1,0.4,2.2,0.1,3.3c-0.2,1.5-0.9,3-1.9,4.1c-0.6,0.7-1.4,1.3-2.3,1.6
	c-1.3,0.5-2.7,0.7-4.1,0.7c-0.3,0-0.6,0-0.8,0.1c-0.3,0.2-0.5,0.5-0.6,0.8c-0.3,1.6-0.5,3.1-0.8,4.7c0,0.2-0.1,0.5-0.1,0.7
	c-0.1,0.4-0.5,0.7-0.9,0.7H139c-0.2,0-0.5-0.1-0.6-0.3c-0.1-0.2-0.1-0.4,0-0.6c0.1-0.6,0.2-1.3,0.3-1.9c0-0.1,0-0.2,0.1-0.4
	c0.3-2.3,0.7-4.6,1.1-6.8c0-0.2,0.1-0.4,0.2-0.7c0.2-0.2,0.4-0.4,0.7-0.5c0.3,0,0.6,0,0.9,0c1.2,0,2.4,0,3.6-0.1
	c1.6-0.2,3.2-0.8,4.5-1.9c1.2-1.1,2-2.4,2.4-3.9C152.3,20.1,152.4,19.6,152.5,19z"/>
<path class="st2" d="M221.4,23.6c0.9-0.3,1.9-0.4,2.9-0.2c0.6,0.1,1.2,0.3,1.8,0.6c0.2,0.2,0.5,0.4,0.6,0.7c0-0.3,0.1-0.5,0.1-0.8
	c0.1-0.2,0.3-0.4,0.5-0.3h2.7c0.3,0,0.5,0.2,0.5,0.5c0,0,0,0.1,0,0.1l-1.5,9.3c0,0.4-0.4,0.7-0.8,0.7h-2.5c-0.3,0-0.5-0.2-0.5-0.4
	c0,0,0,0,0-0.1c0-0.3,0.1-0.5,0.1-0.8c-0.7,0.7-1.5,1.1-2.4,1.4c-0.9,0.2-1.8,0.2-2.7,0c-0.9-0.2-1.6-0.7-2.2-1.3
	c-0.7-0.9-1-2-1-3.2c0-1.7,0.7-3.4,1.9-4.6C219.7,24.4,220.5,23.9,221.4,23.6z M223.5,26.2c-0.9,0.1-1.8,0.6-2.3,1.4
	c-0.4,0.7-0.6,1.5-0.5,2.3c0.1,0.6,0.4,1.1,0.9,1.3c0.6,0.3,1.3,0.4,2,0.3c0.8-0.2,1.6-0.7,2-1.4c0.4-0.7,0.6-1.5,0.4-2.3
	c-0.2-0.6-0.6-1.1-1.1-1.3C224.5,26.2,224.1,26.2,223.5,26.2L223.5,26.2z"/>
<path class="st2" d="M133.8,34.7c-0.2,0-0.3-0.1-0.3-0.3v-0.2c0.1-0.2,0.1-0.5,0.1-0.7l3.1-19.7c0-0.2,0.1-0.4,0.2-0.6
	c0.1-0.2,0.3-0.3,0.6-0.3h8.5c1.4,0,2.7,0.3,4,0.9c0.9,0.5,1.7,1.3,2,2.3c0.3,0.9,0.3,1.8,0.1,2.8c-0.1,0.6-0.2,1.1-0.4,1.6
	c-0.4,1.4-1.2,2.8-2.3,3.8c-1.2,1-2.7,1.6-4.3,1.8c-0.8,0.1-1.6,0.1-2.3,0.1h-1.7c-0.2,0-0.4,0-0.6,0c-0.4,0.1-0.7,0.3-0.9,0.7V27
	v0.1c-0.1,0.2-0.1,0.5-0.2,0.8c-0.2,1-0.3,2-0.5,3.1c-0.2,1.3-0.4,2.5-0.6,3.8l0,0h-4.6L133.8,34.7z"/>
<path class="st0" d="M146,13.3c1.3,0,2.6,0.3,3.8,0.9c0.9,0.5,1.5,1.2,1.8,2.1c0.2,0.8,0.3,1.7,0.1,2.6l0,0l0,0
	c-0.1,0.5-0.2,1-0.4,1.5c-0.4,1.4-1.1,2.6-2.2,3.6c-1.2,1-2.6,1.5-4.1,1.7c-0.8,0.1-1.5,0.1-2.3,0.1h-1.7c-0.2,0-0.4,0-0.6,0.1
	c-0.5,0.1-0.9,0.4-1.1,0.8l-0.1,0.1V27c-0.1,0.3-0.1,0.5-0.2,0.8c-0.2,1-0.3,2-0.5,3c-0.2,1.2-0.4,2.3-0.6,3.5h-4.2
	c0.1-0.2,0.1-0.5,0.1-0.7v-0.2l1.1-7.1l1.9-12.1c0-0.1,0-0.1,0-0.2c0-0.1,0-0.3,0.1-0.4c0.1-0.1,0.2-0.1,0.3-0.2L146,13.3 M146,12.5
	h-8.6c-0.3,0-0.6,0.2-0.8,0.5c-0.2,0.3-0.2,0.6-0.3,0.9l-3,19.3c-0.1,0.3-0.1,0.6-0.2,1v0.3c0.1,0.3,0.3,0.5,0.6,0.6h4.4h0.5
	c0-0.1,0-0.2,0.1-0.4c0.3-2.3,0.7-4.6,1.1-6.8c0-0.2,0.1-0.4,0.1-0.7c0.2-0.2,0.4-0.4,0.7-0.5c0.2,0,0.3,0,0.5,0h1.7
	c0.8,0,1.6,0,2.4-0.1c1.6-0.2,3.2-0.8,4.5-1.9c1.2-1.1,2-2.4,2.4-3.9c0.2-0.5,0.3-1.1,0.4-1.7l0,0c0.2-1,0.1-2-0.1-2.9
	c-0.4-1.1-1.2-2-2.2-2.6c-1.3-0.6-2.7-0.9-4.1-0.9l0,0L146,12.5z"/>
</svg>
